<svg width="63" height="50" viewBox="0 0 63 50" fill="none" xmlns="http://www.w3.org/2000/svg">
<path d="M43.3945 24.2812H19.2773C18.9604 24.2812 18.7031 24.5065 18.7031 24.7841V25.7899C18.7031 26.0675 18.9604 26.2927 19.2773 26.2927H43.3945C43.7115 26.2927 43.9688 26.0675 43.9688 25.7899V24.7841C43.9688 24.5065 43.7115 24.2812 43.3945 24.2812Z" fill="white" style="fill:white;fill-opacity:1;"/>
<path d="M30.7617 31.3213H19.2773C18.9604 31.3213 18.7031 31.5466 18.7031 31.8242V32.8299C18.7031 33.1075 18.9604 33.3328 19.2773 33.3328H30.7617C31.0787 33.3328 31.3359 33.1075 31.3359 32.8299V31.8242C31.3359 31.5466 31.0787 31.3213 30.7617 31.3213Z" fill="white" style="fill:white;fill-opacity:1;"/>
<path d="M43.3945 17.2412H31.9102C31.5932 17.2412 31.3359 17.4665 31.3359 17.7441V18.7498C31.3359 19.0274 31.5932 19.2527 31.9102 19.2527H43.3945C43.7115 19.2527 43.9688 19.0274 43.9688 18.7498V17.7441C43.9688 17.4665 43.7115 17.2412 43.3945 17.2412Z" fill="white" style="fill:white;fill-opacity:1;"/>
</svg>
