<svg width="300" height="300" viewBox="0 0 300 300" fill="none" xmlns="http://www.w3.org/2000/svg">
<g clip-path="url(#clip0_587_377)">
<rect width="300" height="300" fill="black" style="fill:black;fill-opacity:1;"/>
<path d="M-16.0947 189L0.897461 109.239H25.2139L22.5039 121.91H23.0166C25.4092 117.516 28.7539 114 33.0508 111.363C37.3965 108.678 42.084 107.335 47.1133 107.335C52.1914 107.335 56.5127 108.653 60.0771 111.29C63.6904 113.878 66.1074 117.296 67.3281 121.544H67.8408C69.7939 118.761 72.0889 116.319 74.7256 114.22C77.3623 112.071 80.3408 110.387 83.6611 109.166C86.9814 107.945 90.5947 107.335 94.501 107.335C98.7979 107.335 102.606 108.312 105.927 110.265C109.296 112.169 111.933 114.806 113.837 118.175C115.741 121.495 116.693 125.328 116.693 129.674C116.693 131.139 116.596 132.677 116.4 134.288C116.254 135.899 116.01 137.56 115.668 139.269L105.194 189H80.0723L89.8135 142.857C90.0088 141.832 90.1553 140.88 90.2529 140.001C90.3506 139.122 90.3994 138.243 90.3994 137.364C90.3994 134.386 89.5205 131.969 87.7627 130.113C86.0537 128.209 83.6855 127.257 80.6582 127.257C78.4609 127.257 76.4102 127.818 74.5059 128.941C72.6016 130.016 70.9658 131.578 69.5986 133.629C68.2803 135.68 67.3281 138.146 66.7422 141.026L56.6348 189H32.6113L42.2793 142.857C42.4746 141.832 42.6211 140.88 42.7188 140.001C42.8164 139.122 42.8652 138.243 42.8652 137.364C42.8652 134.386 41.9863 131.969 40.2285 130.113C38.5195 128.209 36.1514 127.257 33.124 127.257C30.9268 127.257 28.876 127.818 26.9717 128.941C25.0674 130.064 23.4561 131.651 22.1377 133.702C20.8193 135.753 19.8428 138.194 19.208 141.026L9.02734 189H-16.0947ZM150.604 190.172C145.038 190.172 140.204 188.902 136.103 186.363C132.05 183.824 128.9 180.235 126.654 175.597C124.457 170.909 123.358 165.392 123.358 159.044C123.358 151.72 124.359 144.957 126.361 138.756C128.412 132.555 131.22 127.159 134.784 122.569C138.397 117.979 142.621 114.415 147.455 111.876C152.289 109.337 157.562 108.067 163.275 108.067C167.23 108.067 170.795 108.678 173.969 109.898C177.143 111.119 179.804 112.828 181.952 115.025C184.101 117.223 185.614 119.835 186.493 122.862H187.006L195.429 83.3115H220.697L198.139 189H173.529L175.946 177.428H175.434C172.602 181.578 169.086 184.752 164.887 186.949C160.736 189.098 155.976 190.172 150.604 190.172ZM162.323 170.689C165.009 170.689 167.523 169.981 169.867 168.565C172.26 167.149 174.335 165.196 176.093 162.706C177.899 160.167 179.315 157.262 180.341 153.99C181.366 150.719 181.879 147.228 181.879 143.517C181.879 138.927 180.683 135.216 178.29 132.384C175.897 129.552 172.699 128.136 168.695 128.136C166.01 128.136 163.495 128.819 161.151 130.187C158.808 131.505 156.757 133.409 154.999 135.899C153.241 138.341 151.85 141.197 150.824 144.469C149.848 147.691 149.359 151.231 149.359 155.089C149.359 159.776 150.531 163.561 152.875 166.441C155.219 169.273 158.368 170.689 162.323 170.689ZM228.388 189.952C224.628 189.952 221.43 188.634 218.793 185.997C216.156 183.312 214.838 180.089 214.838 176.329C214.838 172.569 216.156 169.371 218.793 166.734C221.43 164.049 224.628 162.706 228.388 162.706C232.147 162.706 235.346 164.049 237.982 166.734C240.668 169.371 242.011 172.569 242.011 176.329C242.011 180.089 240.668 183.312 237.982 185.997C235.346 188.634 232.147 189.952 228.388 189.952Z" fill="white" style="fill:white;fill-opacity:1;"/>
<path d="M27.9053 311L44.8975 231.239H69.2139L66.5039 243.91H67.0166C69.4092 239.516 72.7539 236 77.0508 233.363C81.3965 230.678 86.084 229.335 91.1133 229.335C96.1914 229.335 100.513 230.653 104.077 233.29C107.69 235.878 110.107 239.296 111.328 243.544H111.841C113.794 240.761 116.089 238.319 118.726 236.22C121.362 234.071 124.341 232.387 127.661 231.166C130.981 229.945 134.595 229.335 138.501 229.335C142.798 229.335 146.606 230.312 149.927 232.265C153.296 234.169 155.933 236.806 157.837 240.175C159.741 243.495 160.693 247.328 160.693 251.674C160.693 253.139 160.596 254.677 160.4 256.288C160.254 257.899 160.01 259.56 159.668 261.269L149.194 311H124.072L133.813 264.857C134.009 263.832 134.155 262.88 134.253 262.001C134.351 261.122 134.399 260.243 134.399 259.364C134.399 256.386 133.521 253.969 131.763 252.113C130.054 250.209 127.686 249.257 124.658 249.257C122.461 249.257 120.41 249.818 118.506 250.941C116.602 252.016 114.966 253.578 113.599 255.629C112.28 257.68 111.328 260.146 110.742 263.026L100.635 311H76.6113L86.2793 264.857C86.4746 263.832 86.6211 262.88 86.7188 262.001C86.8164 261.122 86.8652 260.243 86.8652 259.364C86.8652 256.386 85.9863 253.969 84.2285 252.113C82.5195 250.209 80.1514 249.257 77.124 249.257C74.9268 249.257 72.876 249.818 70.9717 250.941C69.0674 252.064 67.4561 253.651 66.1377 255.702C64.8193 257.753 63.8428 260.194 63.208 263.026L53.0273 311H27.9053ZM194.604 312.172C189.038 312.172 184.204 310.902 180.103 308.363C176.05 305.824 172.9 302.235 170.654 297.597C168.457 292.909 167.358 287.392 167.358 281.044C167.358 273.72 168.359 266.957 170.361 260.756C172.412 254.555 175.22 249.159 178.784 244.569C182.397 239.979 186.621 236.415 191.455 233.876C196.289 231.337 201.562 230.067 207.275 230.067C211.23 230.067 214.795 230.678 217.969 231.898C221.143 233.119 223.804 234.828 225.952 237.025C228.101 239.223 229.614 241.835 230.493 244.862H231.006L239.429 205.312H264.697L242.139 311H217.529L219.946 299.428H219.434C216.602 303.578 213.086 306.752 208.887 308.949C204.736 311.098 199.976 312.172 194.604 312.172ZM206.323 292.689C209.009 292.689 211.523 291.981 213.867 290.565C216.26 289.149 218.335 287.196 220.093 284.706C221.899 282.167 223.315 279.262 224.341 275.99C225.366 272.719 225.879 269.228 225.879 265.517C225.879 260.927 224.683 257.216 222.29 254.384C219.897 251.552 216.699 250.136 212.695 250.136C210.01 250.136 207.495 250.819 205.151 252.187C202.808 253.505 200.757 255.409 198.999 257.899C197.241 260.341 195.85 263.197 194.824 266.469C193.848 269.691 193.359 273.231 193.359 277.089C193.359 281.776 194.531 285.561 196.875 288.441C199.219 291.273 202.368 292.689 206.323 292.689ZM272.388 311.952C268.628 311.952 265.43 310.634 262.793 307.997C260.156 305.312 258.838 302.089 258.838 298.329C258.838 294.569 260.156 291.371 262.793 288.734C265.43 286.049 268.628 284.706 272.388 284.706C276.147 284.706 279.346 286.049 281.982 288.734C284.668 291.371 286.011 294.569 286.011 298.329C286.011 302.089 284.668 305.312 281.982 307.997C279.346 310.634 276.147 311.952 272.388 311.952Z" fill="white" style="fill:white;fill-opacity:1;"/>
<path d="M67.9053 81L84.8975 1.23926H109.214L106.504 13.9102H107.017C109.409 9.51562 112.754 6 117.051 3.36328C121.396 0.677734 126.084 -0.665039 131.113 -0.665039C136.191 -0.665039 140.513 0.65332 144.077 3.29004C147.69 5.87793 150.107 9.2959 151.328 13.5439H151.841C153.794 10.7607 156.089 8.31934 158.726 6.21973C161.362 4.07129 164.341 2.38672 167.661 1.16602C170.981 -0.0546875 174.595 -0.665039 178.501 -0.665039C182.798 -0.665039 186.606 0.311523 189.927 2.26465C193.296 4.16895 195.933 6.80566 197.837 10.1748C199.741 13.4951 200.693 17.3281 200.693 21.6738C200.693 23.1387 200.596 24.6768 200.4 26.2881C200.254 27.8994 200.01 29.5596 199.668 31.2686L189.194 81H164.072L173.813 34.8574C174.009 33.832 174.155 32.8799 174.253 32.001C174.351 31.1221 174.399 30.2432 174.399 29.3643C174.399 26.3857 173.521 23.9688 171.763 22.1133C170.054 20.209 167.686 19.2568 164.658 19.2568C162.461 19.2568 160.41 19.8184 158.506 20.9414C156.602 22.0156 154.966 23.5781 153.599 25.6289C152.28 27.6797 151.328 30.1455 150.742 33.0264L140.635 81H116.611L126.279 34.8574C126.475 33.832 126.621 32.8799 126.719 32.001C126.816 31.1221 126.865 30.2432 126.865 29.3643C126.865 26.3857 125.986 23.9688 124.229 22.1133C122.52 20.209 120.151 19.2568 117.124 19.2568C114.927 19.2568 112.876 19.8184 110.972 20.9414C109.067 22.0645 107.456 23.6514 106.138 25.7021C104.819 27.7529 103.843 30.1943 103.208 33.0264L93.0273 81H67.9053ZM234.604 82.1719C229.038 82.1719 224.204 80.9023 220.103 78.3633C216.05 75.8242 212.9 72.2354 210.654 67.5967C208.457 62.9092 207.358 57.3916 207.358 51.0439C207.358 43.7197 208.359 36.957 210.361 30.7559C212.412 24.5547 215.22 19.1592 218.784 14.5693C222.397 9.97949 226.621 6.41504 231.455 3.87598C236.289 1.33691 241.562 0.0673828 247.275 0.0673828C251.23 0.0673828 254.795 0.677734 257.969 1.89844C261.143 3.11914 263.804 4.82812 265.952 7.02539C268.101 9.22266 269.614 11.835 270.493 14.8623H271.006L279.429 -24.6885H304.697L282.139 81H257.529L259.946 69.4277H259.434C256.602 73.5781 253.086 76.752 248.887 78.9492C244.736 81.0977 239.976 82.1719 234.604 82.1719ZM246.323 62.6895C249.009 62.6895 251.523 61.9814 253.867 60.5654C256.26 59.1494 258.335 57.1963 260.093 54.7061C261.899 52.167 263.315 49.2617 264.341 45.9902C265.366 42.7188 265.879 39.2275 265.879 35.5166C265.879 30.9268 264.683 27.2158 262.29 24.3838C259.897 21.5518 256.699 20.1357 252.695 20.1357C250.01 20.1357 247.495 20.8193 245.151 22.1865C242.808 23.5049 240.757 25.4092 238.999 27.8994C237.241 30.3408 235.85 33.1973 234.824 36.4688C233.848 39.6914 233.359 43.2314 233.359 47.0889C233.359 51.7764 234.531 55.5605 236.875 58.4414C239.219 61.2734 242.368 62.6895 246.323 62.6895ZM312.388 81.9521C308.628 81.9521 305.43 80.6338 302.793 77.9971C300.156 75.3115 298.838 72.0889 298.838 68.3291C298.838 64.5693 300.156 61.3711 302.793 58.7344C305.43 56.0488 308.628 54.7061 312.388 54.7061C316.147 54.7061 319.346 56.0488 321.982 58.7344C324.668 61.3711 326.011 64.5693 326.011 68.3291C326.011 72.0889 324.668 75.3115 321.982 77.9971C319.346 80.6338 316.147 81.9521 312.388 81.9521Z" fill="white" style="fill:white;fill-opacity:1;"/>
</g>
<defs>
<clipPath id="clip0_587_377">
<rect width="300" height="300" fill="white" style="fill:white;fill-opacity:1;"/>
</clipPath>
</defs>
</svg>
